<?xml version="1.0" encoding="utf-8"?>
<!-- Generator: Adobe Illustrator 15.1.0, SVG Export Plug-In . SVG Version: 6.00 Build 0)  -->
<!DOCTYPE svg PUBLIC "-//W3C//DTD SVG 1.1//EN" "http://www.w3.org/Graphics/SVG/1.1/DTD/svg11.dtd">
<svg version="1.1" id="Layer_1" xmlns="http://www.w3.org/2000/svg" xmlns:xlink="http://www.w3.org/1999/xlink" x="0px" y="0px"
	 width="121.955px" height="121.966px" viewBox="0 0 121.955 121.966" enable-background="new 0 0 121.955 121.966"
	 xml:space="preserve">
<g>
	<g>
		<defs>
			<rect id="SVGID_1_" y="0" width="120.956" height="120.967"/>
		</defs>
		<clipPath id="SVGID_2_">
			<use xlink:href="#SVGID_1_"  overflow="visible"/>
		</clipPath>
		<path clip-path="url(#SVGID_2_)" fill="#FFB819" d="M60.477,116.793c-1.501,0-2.91-0.585-3.972-1.646L5.814,64.455
			c-1.061-1.062-1.646-2.471-1.646-3.971c0-1.5,0.584-2.91,1.646-3.972L56.505,5.819c1.062-1.061,2.471-1.644,3.972-1.644
			c1.499,0,2.91,0.583,3.971,1.644l50.691,50.693c2.192,2.189,2.192,5.753,0,7.943l-50.691,50.691
			C63.387,116.207,61.976,116.793,60.477,116.793 M60.477,5.631c-1.113,0-2.156,0.432-2.943,1.218L6.842,57.541
			c-0.786,0.785-1.218,1.83-1.218,2.942c0,1.111,0.432,2.158,1.218,2.942l50.692,50.693c0.787,0.785,1.83,1.218,2.943,1.218
			c1.111,0,2.157-0.433,2.941-1.218l50.693-50.693c1.62-1.623,1.62-4.261,0-5.884L63.419,6.849
			C62.634,6.063,61.588,5.631,60.477,5.631"/>
	</g>
	<g>
		<defs>
			<rect id="SVGID_3_" y="0" width="120.956" height="120.967"/>
		</defs>
		<clipPath id="SVGID_4_">
			<use xlink:href="#SVGID_3_"  overflow="visible"/>
		</clipPath>
		<path clip-path="url(#SVGID_4_)" fill="#FFB819" d="M60.477,120.967c-2.781,0-5.395-1.083-7.362-3.049L3.043,67.846
			c-4.058-4.06-4.058-10.667,0-14.726L53.115,3.051C55.082,1.083,57.696,0,60.477,0c2.779,0,5.394,1.083,7.363,3.05l50.072,50.07
			c4.059,4.059,4.059,10.667,0,14.726L67.84,117.918C65.871,119.884,63.256,120.967,60.477,120.967 M60.477,1.94
			c-2.262,0-4.39,0.881-5.991,2.481L4.415,54.493c-3.301,3.304-3.301,8.677,0,11.981l50.072,50.071
			c1.601,1.599,3.729,2.479,5.991,2.479c2.264,0,4.389-0.881,5.99-2.479l50.071-50.072c3.301-3.304,3.301-8.677,0-11.981
			L66.467,4.422C64.866,2.822,62.741,1.94,60.477,1.94"/>
	</g>
	<g>
		<defs>
			<rect id="SVGID_5_" y="0" width="120.956" height="120.967"/>
		</defs>
		<clipPath id="SVGID_6_">
			<use xlink:href="#SVGID_5_"  overflow="visible"/>
		</clipPath>
		<polygon clip-path="url(#SVGID_6_)" fill="#FFFFFF" points="44.872,28.246 54.049,28.246 54.049,30.66 50.969,30.66 
			50.969,38.015 47.95,38.015 47.95,30.66 44.872,30.66 		"/>
	</g>
	<g>
		<defs>
			<rect id="SVGID_7_" y="0" width="120.956" height="120.967"/>
		</defs>
		<clipPath id="SVGID_8_">
			<use xlink:href="#SVGID_7_"  overflow="visible"/>
		</clipPath>
		<polygon clip-path="url(#SVGID_8_)" fill="#FFFFFF" points="55.428,28.246 58.447,28.246 58.447,31.665 61.745,31.665 
			61.745,28.246 64.778,28.246 64.778,38.015 61.745,38.015 61.745,34.065 58.447,34.065 58.447,38.015 55.428,38.015 		"/>
	</g>
	<g>
		<defs>
			<rect id="SVGID_9_" y="0" width="120.956" height="120.967"/>
		</defs>
		<clipPath id="SVGID_10_">
			<use xlink:href="#SVGID_9_"  overflow="visible"/>
		</clipPath>
		<polygon clip-path="url(#SVGID_10_)" fill="#FFFFFF" points="66.776,28.246 74.869,28.246 74.869,30.332 69.803,30.332 
			69.803,31.886 74.501,31.886 74.501,33.879 69.803,33.879 69.803,35.804 75.015,35.804 75.015,38.015 66.776,38.015 		"/>
	</g>
	<g>
		<defs>
			<rect id="SVGID_11_" y="0" width="120.956" height="120.967"/>
		</defs>
		<clipPath id="SVGID_12_">
			<use xlink:href="#SVGID_11_"  overflow="visible"/>
		</clipPath>
		<path clip-path="url(#SVGID_12_)" fill="#FFFFFF" d="M30.964,80.477l2.873-0.181c0.062,0.466,0.189,0.822,0.38,1.067
			c0.31,0.396,0.754,0.593,1.333,0.593c0.431,0,0.762-0.101,0.995-0.303c0.234-0.202,0.352-0.437,0.352-0.703
			c0-0.255-0.112-0.481-0.334-0.681c-0.221-0.2-0.738-0.389-1.546-0.566c-1.323-0.298-2.268-0.692-2.833-1.187
			c-0.567-0.492-0.852-1.123-0.852-1.887c0-0.5,0.145-0.977,0.436-1.423c0.292-0.444,0.729-0.795,1.313-1.051
			s1.385-0.383,2.402-0.383c1.249,0,2.202,0.231,2.856,0.694c0.655,0.466,1.045,1.206,1.17,2.216l-2.846,0.167
			c-0.076-0.439-0.234-0.761-0.476-0.961c-0.242-0.199-0.577-0.297-1.003-0.297c-0.351,0-0.616,0.072-0.793,0.221
			c-0.178,0.149-0.268,0.331-0.268,0.545c0,0.154,0.074,0.294,0.22,0.417c0.144,0.13,0.482,0.25,1.014,0.361
			c1.319,0.285,2.265,0.573,2.835,0.862c0.571,0.29,0.987,0.652,1.246,1.083s0.39,0.912,0.39,1.447c0,0.625-0.173,1.202-0.521,1.732
			c-0.347,0.529-0.831,0.931-1.452,1.202c-0.621,0.275-1.406,0.411-2.353,0.411c-1.662,0-2.812-0.32-3.452-0.958
			C31.411,82.275,31.049,81.462,30.964,80.477"/>
	</g>
	<g>
		<defs>
			<rect id="SVGID_13_" y="0" width="120.956" height="120.967"/>
		</defs>
		<clipPath id="SVGID_14_">
			<use xlink:href="#SVGID_13_"  overflow="visible"/>
		</clipPath>
		<polygon clip-path="url(#SVGID_14_)" fill="#FFFFFF" points="41.34,73.939 49.432,73.939 49.432,76.024 44.366,76.024 
			44.366,77.578 49.064,77.578 49.064,79.571 44.366,79.571 44.366,81.496 49.578,81.496 49.578,83.709 41.34,83.709 		"/>
	</g>
	<g>
		<defs>
			<rect id="SVGID_15_" y="0" width="120.956" height="120.967"/>
		</defs>
		<clipPath id="SVGID_16_">
			<use xlink:href="#SVGID_15_"  overflow="visible"/>
		</clipPath>
		<path clip-path="url(#SVGID_16_)" fill="#FFFFFF" d="M57.708,79.711l2.647,0.798c-0.179,0.742-0.458,1.362-0.842,1.859
			c-0.38,0.498-0.856,0.873-1.423,1.128c-0.566,0.252-1.287,0.378-2.162,0.378c-1.062,0-1.929-0.155-2.603-0.464
			c-0.673-0.309-1.253-0.851-1.743-1.627c-0.489-0.777-0.733-1.772-0.733-2.982c0-1.618,0.43-2.86,1.29-3.727
			c0.859-0.867,2.076-1.301,3.649-1.301c1.229,0,2.197,0.247,2.902,0.745c0.702,0.498,1.227,1.261,1.57,2.293l-2.667,0.593
			c-0.093-0.298-0.19-0.516-0.294-0.655c-0.168-0.231-0.375-0.407-0.619-0.533c-0.245-0.124-0.518-0.185-0.821-0.185
			c-0.684,0-1.208,0.273-1.572,0.824c-0.275,0.41-0.412,1.051-0.412,1.924c0,1.083,0.164,1.824,0.492,2.227
			c0.329,0.401,0.79,0.604,1.386,0.604c0.577,0,1.015-0.163,1.31-0.487C57.36,80.799,57.575,80.328,57.708,79.711"/>
	</g>
	<g>
		<defs>
			<rect id="SVGID_17_" y="0" width="120.956" height="120.967"/>
		</defs>
		<clipPath id="SVGID_18_">
			<use xlink:href="#SVGID_17_"  overflow="visible"/>
		</clipPath>
		<path clip-path="url(#SVGID_18_)" fill="#FFFFFF" d="M61.859,83.709v-9.771h5.031c0.933,0,1.646,0.08,2.139,0.239
			c0.495,0.162,0.891,0.457,1.194,0.891c0.3,0.434,0.452,0.961,0.452,1.583c0,0.542-0.114,1.008-0.346,1.402
			c-0.231,0.394-0.55,0.713-0.954,0.958c-0.256,0.154-0.61,0.282-1.06,0.386c0.359,0.12,0.623,0.239,0.785,0.359
			c0.112,0.08,0.272,0.252,0.484,0.513c0.21,0.263,0.352,0.466,0.423,0.61l1.46,2.83h-3.41l-1.615-2.987
			c-0.202-0.386-0.386-0.637-0.545-0.753c-0.219-0.149-0.464-0.226-0.74-0.226h-0.266v3.966L61.859,83.709L61.859,83.709z
			 M64.893,77.897h1.271c0.138,0,0.404-0.042,0.801-0.133c0.2-0.04,0.362-0.142,0.489-0.306c0.128-0.165,0.189-0.354,0.189-0.567
			c0-0.316-0.098-0.558-0.297-0.726c-0.202-0.17-0.578-0.253-1.128-0.253h-1.324V77.897L64.893,77.897z"/>
	</g>
	<g>
		<defs>
			<rect id="SVGID_19_" y="0" width="120.956" height="120.967"/>
		</defs>
		<clipPath id="SVGID_20_">
			<use xlink:href="#SVGID_19_"  overflow="visible"/>
		</clipPath>
		<polygon clip-path="url(#SVGID_20_)" fill="#FFFFFF" points="72.429,73.939 80.519,73.939 80.519,76.024 75.454,76.024 
			75.454,77.578 80.152,77.578 80.152,79.571 75.454,79.571 75.454,81.496 80.666,81.496 80.666,83.709 72.429,83.709 		"/>
	</g>
	<g>
		<defs>
			<rect id="SVGID_21_" y="0" width="120.956" height="120.967"/>
		</defs>
		<clipPath id="SVGID_22_">
			<use xlink:href="#SVGID_21_"  overflow="visible"/>
		</clipPath>
		<polygon clip-path="url(#SVGID_22_)" fill="#FFFFFF" points="81.607,73.939 90.782,73.939 90.782,76.351 87.705,76.351 
			87.705,83.709 84.685,83.709 84.685,76.351 81.607,76.351 		"/>
	</g>
	<g>
		<defs>
			<rect id="SVGID_23_" y="0" width="120.956" height="120.967"/>
		</defs>
		<clipPath id="SVGID_24_">
			<use xlink:href="#SVGID_23_"  overflow="visible"/>
		</clipPath>
		<polygon clip-path="url(#SVGID_24_)" fill="#FFFFFF" points="46.412,85.487 49.432,85.487 49.432,92.85 54.143,92.85 
			54.143,95.255 46.412,95.255 		"/>
	</g>
	<g>
		<defs>
			<rect id="SVGID_25_" y="0" width="120.956" height="120.967"/>
		</defs>
		<clipPath id="SVGID_26_">
			<use xlink:href="#SVGID_25_"  overflow="visible"/>
		</clipPath>
		<path clip-path="url(#SVGID_26_)" fill="#FFFFFF" d="M61.522,93.643h-3.427l-0.476,1.612h-3.083l3.673-9.769h3.292l3.67,9.769
			h-3.16L61.522,93.643z M60.896,91.531l-1.08-3.511l-1.067,3.511H60.896z"/>
	</g>
	<g>
		<defs>
			<rect id="SVGID_27_" y="0" width="120.956" height="120.967"/>
		</defs>
		<clipPath id="SVGID_28_">
			<use xlink:href="#SVGID_27_"  overflow="visible"/>
		</clipPath>
		<path clip-path="url(#SVGID_28_)" fill="#FFFFFF" d="M66.137,85.487h5.653c0.941,0,1.665,0.232,2.168,0.7
			c0.505,0.466,0.758,1.042,0.758,1.732c0,0.577-0.181,1.072-0.541,1.487c-0.242,0.274-0.59,0.492-1.053,0.652
			c0.702,0.17,1.218,0.46,1.548,0.87c0.333,0.412,0.497,0.928,0.497,1.551c0,0.505-0.117,0.961-0.353,1.364
			c-0.235,0.404-0.557,0.724-0.965,0.96c-0.253,0.146-0.637,0.253-1.147,0.319c-0.678,0.09-1.13,0.133-1.351,0.133h-5.214V85.487z
			 M69.184,89.318h1.313c0.471,0,0.798-0.08,0.981-0.243c0.187-0.161,0.277-0.396,0.277-0.705c0-0.282-0.09-0.505-0.277-0.665
			c-0.183-0.16-0.505-0.239-0.962-0.239h-1.333V89.318L69.184,89.318z M69.184,93.156h1.54c0.518,0,0.886-0.093,1.098-0.277
			c0.215-0.183,0.322-0.431,0.322-0.742c0-0.29-0.107-0.521-0.316-0.696c-0.213-0.176-0.583-0.264-1.11-0.264h-1.534V93.156
			L69.184,93.156z"/>
	</g>
	<g>
		<defs>
			<rect id="SVGID_29_" y="0" width="120.956" height="120.967"/>
		</defs>
		<clipPath id="SVGID_30_">
			<use xlink:href="#SVGID_29_"  overflow="visible"/>
		</clipPath>
		<rect x="25.702" y="64.333" clip-path="url(#SVGID_30_)" fill="#FFFFFF" width="69.344" height="3.881"/>
	</g>
	<g>
		<defs>
			<rect id="SVGID_31_" y="0" width="120.956" height="120.967"/>
		</defs>
		<clipPath id="SVGID_32_">
			<use xlink:href="#SVGID_31_"  overflow="visible"/>
		</clipPath>
		<polygon clip-path="url(#SVGID_32_)" fill="#FFFFFF" points="68.305,52.447 68.305,62.777 67.456,62.777 67.456,53.296 
			60.899,53.296 60.899,62.777 60.052,62.777 60.052,53.296 53.424,53.296 53.424,62.777 52.575,62.777 52.575,52.447 		"/>
	</g>
	<g>
		<defs>
			<rect id="SVGID_33_" y="0" width="120.956" height="120.967"/>
		</defs>
		<clipPath id="SVGID_34_">
			<use xlink:href="#SVGID_33_"  overflow="visible"/>
		</clipPath>
		<path clip-path="url(#SVGID_34_)" fill="#FFFFFF" d="M68.305,62.957h-0.848c-0.099,0-0.181-0.08-0.181-0.18v-9.299h-6.193v9.299
			c0,0.101-0.082,0.18-0.183,0.18h-0.848c-0.099,0-0.182-0.08-0.182-0.18v-9.299h-6.264v9.299c0,0.101-0.082,0.18-0.182,0.18h-0.849
			c-0.099,0-0.182-0.08-0.182-0.18v-10.33c0-0.101,0.083-0.18,0.182-0.18h15.731c0.101,0,0.183,0.08,0.183,0.18v10.33
			C68.489,62.877,68.406,62.957,68.305,62.957 M67.641,62.595h0.484V52.63H52.757v9.965h0.484v-9.299c0-0.1,0.083-0.181,0.183-0.181
			h6.628c0.101,0,0.183,0.081,0.183,0.181v9.299h0.485v-9.299c0-0.1,0.082-0.181,0.18-0.181h6.557c0.102,0,0.184,0.081,0.184,0.181
			V62.595L67.641,62.595z"/>
	</g>
	<g>
		<defs>
			<rect id="SVGID_35_" y="0" width="120.956" height="120.967"/>
		</defs>
		<clipPath id="SVGID_36_">
			<use xlink:href="#SVGID_35_"  overflow="visible"/>
		</clipPath>
		<polygon clip-path="url(#SVGID_36_)" fill="#FFFFFF" points="76.683,46.297 44.194,46.307 36.708,62.585 32.515,62.585 
			41.758,42.552 79.186,42.552 88.327,62.585 84.116,62.585 		"/>
	</g>
	<g>
		<defs>
			<rect id="SVGID_37_" y="0" width="120.956" height="120.967"/>
		</defs>
		<clipPath id="SVGID_38_">
			<use xlink:href="#SVGID_37_"  overflow="visible"/>
		</clipPath>
		<path clip-path="url(#SVGID_38_)" fill="#FFFFFF" d="M88.329,63.01h-0.002h-4.211c-0.168,0-0.319-0.099-0.389-0.25l-7.318-16.038
			L44.465,46.73l-7.37,16.032c-0.07,0.149-0.22,0.248-0.386,0.248h-4.194c-0.145,0-0.279-0.074-0.357-0.197
			c-0.079-0.123-0.088-0.274-0.028-0.407l9.244-20.03c0.069-0.152,0.218-0.248,0.384-0.248h37.428c0.167,0,0.319,0.095,0.388,0.248
			l9.12,19.994c0.037,0.063,0.058,0.138,0.058,0.215C88.752,62.819,88.563,63.01,88.329,63.01 M84.387,62.162h3.28l-8.752-19.186
			H42.029l-8.852,19.186h3.26l7.37-16.033c0.07-0.15,0.22-0.248,0.387-0.248l32.489-0.009c0.165,0,0.316,0.097,0.385,0.249
			L84.387,62.162z"/>
	</g>
	<g>
		<defs>
			<rect id="SVGID_39_" y="0" width="120.956" height="120.967"/>
		</defs>
		<clipPath id="SVGID_40_">
			<use xlink:href="#SVGID_39_"  overflow="visible"/>
		</clipPath>
		<path clip-path="url(#SVGID_40_)" fill="#FFB819" d="M60.477,116.793c-1.501,0-2.91-0.585-3.972-1.646L5.814,64.455
			c-1.061-1.062-1.646-2.471-1.646-3.971c0-1.5,0.584-2.91,1.646-3.972L56.505,5.819c1.062-1.061,2.471-1.644,3.972-1.644
			c1.499,0,2.91,0.583,3.971,1.644l50.691,50.693c2.192,2.189,2.192,5.753,0,7.943l-50.691,50.691
			C63.387,116.207,61.976,116.793,60.477,116.793 M60.477,5.631c-1.113,0-2.156,0.432-2.943,1.218L6.842,57.541
			c-0.786,0.785-1.218,1.83-1.218,2.942c0,1.111,0.432,2.158,1.218,2.942l50.692,50.693c0.787,0.785,1.83,1.218,2.943,1.218
			c1.111,0,2.157-0.433,2.941-1.218l50.693-50.693c1.62-1.623,1.62-4.261,0-5.884L63.419,6.849
			C62.634,6.063,61.588,5.631,60.477,5.631"/>
	</g>
	<g>
		<defs>
			<rect id="SVGID_41_" y="0" width="120.956" height="120.967"/>
		</defs>
		<clipPath id="SVGID_42_">
			<use xlink:href="#SVGID_41_"  overflow="visible"/>
		</clipPath>
		<path clip-path="url(#SVGID_42_)" fill="#FFB819" d="M60.477,120.967c-2.781,0-5.395-1.083-7.362-3.049L3.043,67.846
			c-4.058-4.06-4.058-10.667,0-14.726L53.115,3.051C55.082,1.083,57.696,0,60.477,0c2.779,0,5.394,1.083,7.363,3.05l50.072,50.07
			c4.059,4.059,4.059,10.667,0,14.726L67.84,117.918C65.871,119.884,63.256,120.967,60.477,120.967 M60.477,1.94
			c-2.262,0-4.39,0.881-5.991,2.481L4.415,54.493c-3.301,3.304-3.301,8.677,0,11.981l50.072,50.071
			c1.601,1.599,3.729,2.479,5.991,2.479c2.264,0,4.389-0.881,5.99-2.479l50.071-50.072c3.301-3.304,3.301-8.677,0-11.981
			L66.467,4.422C64.866,2.822,62.741,1.94,60.477,1.94"/>
	</g>
</g>
</svg>
